<?xml version="1.0" encoding="utf-8"?>
<!-- Generator: Adobe Illustrator 15.1.0, SVG Export Plug-In . SVG Version: 6.00 Build 0)  -->
<!DOCTYPE svg PUBLIC "-//W3C//DTD SVG 1.1//EN" "http://www.w3.org/Graphics/SVG/1.1/DTD/svg11.dtd">
<svg version="1.1" id="Layer_1" xmlns="http://www.w3.org/2000/svg" xmlns:xlink="http://www.w3.org/1999/xlink" x="0px" y="0px"
	 width="257px" height="85px" viewBox="134 45 257 85"
	 enable-background="new 134 45 257 85" xml:space="preserve">
<g>
	<path fill="#82C5ED" d="M177.937,102.777h-43.858c0-19.504,0-39.083,0-58.587h43.858v10.713h-32.895v13.477h31.722v10.296h-31.722
		V91.9h32.895V102.777z"/>
	<path fill="#82C5ED" d="M233.87,72.984c0.25,14.811-8.791,29.793-29.293,29.793c-7.201,0-15.82,0-23.017,0V44.19
		c7.197,0,15.816,0,23.017,0C224.663,44.19,233.617,58.502,233.87,72.984z M192.523,92.146h12.054
		c13.305,0,18.58-9.707,18.327-19.25c-0.249-9.119-5.606-18.246-18.327-18.246h-12.054V92.146z"/>
	<path d="M284.619,61.184c0,4.514-2.176,8.865-7.622,11.294c6.869,2.093,9.38,9.372,9.38,13.06c0,13.052-9.789,17.239-21.929,17.239
		c-9.291,0-18.499,0-27.789,0V44.19c9.208,0,18.499,0,27.789,0C275.999,44.19,284.619,49.375,284.619,61.184z M247.54,67.71h16.908
		c6.947,0,9.204-2.928,9.204-6.281c0-2.674-2.175-7.196-9.204-7.196H247.54V67.71z M247.54,92.481h16.908
		c4.518,0,10.962-1.504,10.962-7.033c0-5.267-6.444-8.031-10.962-8.031H247.54V92.481z"/>
	<path d="M299.372,44.272v58.505h-10.124V44.272H299.372z"/>
	<path d="M345.168,82.185c0,11.89-8.12,21.516-21.508,21.516c-13.396,0-21.426-9.626-21.426-21.516
		c0-11.801,8.194-21.508,21.345-21.508C336.713,60.677,345.168,70.384,345.168,82.185z M312.44,82.185
		c0,6.281,3.762,12.136,11.22,12.136c7.442,0,11.212-5.855,11.212-12.136c0-6.191-4.358-12.218-11.212-12.218
		C316.292,69.967,312.44,75.994,312.44,82.185z"/>
	<path d="M382.517,57.332l7.531,5.692l-4.597,5.856c3.174,3.598,4.352,7.704,4.352,12.218c0,5.11-1.93,12.308-8.709,15.399
		c6.86,3.435,8.537,8.374,8.537,13.648c0,11.384-8.709,18.408-20.674,18.408s-20.928-7.278-20.928-18.408h10.133
		c0,5.356,4.932,8.865,10.795,8.865c5.864,0,10.461-3.174,10.461-8.865s-5.349-8.292-10.461-8.292
		c-12.888,0-20.927-7.867-20.927-20.756c0-12.889,9.381-20.919,20.927-20.919c3.264,0,6.617,0.417,9.463,2.339L382.517,57.332z
		 M358.163,81.098c0,7.196,4.85,11.466,10.795,11.466c5.863,0,10.713-4.352,10.713-11.466c0-7.115-4.85-11.629-10.713-11.629
		C363.012,69.468,358.163,73.9,358.163,81.098z"/>
</g>
</svg>
