<?xml version="1.0" encoding="utf-8"?>
<!-- Generator: Adobe Illustrator 15.1.0, SVG Export Plug-In . SVG Version: 6.00 Build 0)  -->
<!DOCTYPE svg PUBLIC "-//W3C//DTD SVG 1.1//EN" "http://www.w3.org/Graphics/SVG/1.1/DTD/svg11.dtd">
<svg version="1.1" id="Layer_1" xmlns="http://www.w3.org/2000/svg" xmlns:xlink="http://www.w3.org/1999/xlink" x="0px" y="0px"
	 width="84px" height="28px" viewBox="0 0 84 28" enable-background="new 0 0 84 28" xml:space="preserve">
<g>
	<path fill="#82C5ED" d="M14.366,19.56H0C0,13.168,0,6.756,0,0.367h14.366v3.51H3.592v4.414h10.391v3.373H3.592v4.33h10.774V19.56z"
		/>
	<path fill="#82C5ED" d="M32.687,9.799c0.081,4.853-2.88,9.761-9.596,9.761c-2.358,0-5.182,0-7.539,0V0.367c2.357,0,5.181,0,7.539,0
		C29.671,0.367,32.603,5.056,32.687,9.799z M19.143,16.076h3.948c4.358,0,6.086-3.181,6.003-6.306
		c-0.082-2.987-1.836-5.978-6.003-5.978h-3.948V16.076z"/>
	<path fill="#FFFFFF" d="M49.311,5.934c0,1.479-0.714,2.904-2.497,3.699c2.25,0.686,3.071,3.07,3.071,4.277
		c0,4.274-3.206,5.648-7.183,5.648c-3.043,0-6.061,0-9.104,0V0.367c3.017,0,6.061,0,9.104,0C46.487,0.367,49.311,2.065,49.311,5.934
		z M37.165,8.072h5.538c2.274,0,3.016-0.959,3.016-2.059c0-0.876-0.712-2.357-3.016-2.357h-5.538V8.072z M37.165,16.185h5.538
		c1.479,0,3.59-0.491,3.59-2.304c0-1.725-2.11-2.631-3.59-2.631h-5.538V16.185z"/>
	<path fill="#FFFFFF" d="M54.141,0.394V19.56h-3.315V0.394H54.141z"/>
	<path fill="#FFFFFF" d="M69.143,12.813c0,3.895-2.658,7.049-7.046,7.049c-4.385,0-7.018-3.154-7.018-7.049
		c0-3.865,2.685-7.045,6.993-7.045C66.375,5.768,69.143,8.947,69.143,12.813z M58.425,12.813c0,2.059,1.23,3.975,3.673,3.975
		c2.438,0,3.674-1.916,3.674-3.975c0-2.027-1.429-4.002-3.674-4.002C59.685,8.811,58.425,10.785,58.425,12.813z"/>
	<path fill="#FFFFFF" d="M81.378,4.672l2.467,1.865L82.34,8.455c1.038,1.178,1.426,2.522,1.426,4.002
		c0,1.672-0.634,4.031-2.852,5.043c2.245,1.127,2.794,2.742,2.794,4.472c0,3.729-2.854,6.028-6.771,6.028s-6.854-2.383-6.854-6.028
		h3.316c0,1.755,1.615,2.903,3.536,2.903s3.427-1.041,3.427-2.903c0-1.864-1.753-2.716-3.427-2.716
		c-4.223,0-6.854-2.575-6.854-6.799c0-4.223,3.07-6.854,6.854-6.854c1.07,0,2.168,0.137,3.102,0.766L81.378,4.672z M73.4,12.457
		c0,2.355,1.59,3.754,3.536,3.754c1.921,0,3.511-1.424,3.511-3.754c0-2.332-1.59-3.811-3.511-3.811
		C74.99,8.647,73.4,10.1,73.4,12.457z"/>
</g>
</svg>
