<?xml version="1.0" encoding="utf-8"?>
<!-- Generator: Adobe Illustrator 15.1.0, SVG Export Plug-In . SVG Version: 6.00 Build 0)  -->
<!DOCTYPE svg PUBLIC "-//W3C//DTD SVG 1.1//EN" "http://www.w3.org/Graphics/SVG/1.1/DTD/svg11.dtd">
<svg version="1.1" id="Layer_1" xmlns="http://www.w3.org/2000/svg" xmlns:xlink="http://www.w3.org/1999/xlink" x="0px" y="0px"
	 width="88px" height="66px" viewBox="0 0 88 66" enable-background="new 0 0 88 66" xml:space="preserve">
<g>
	<rect x="0.5" y="0.5" fill="#F2F5F7" width="87" height="65"/>
	<path fill="#BBC5CC" d="M87,1v64H1V1H87 M88,0H0v66h88V0L88,0z"/>
</g>
<rect y="15.517" fill="none" width="88.001" height="44.629"/>
<g enable-background="new    ">
	<path fill="#B9C3CA" d="M60.068,28.377v14.998c0,2.36-1.925,4.285-4.285,4.285H32.215c-2.36,0-4.285-1.925-4.285-4.285V28.377
		c0-2.36,1.925-4.285,4.285-4.285h3.75l0.854-2.276c0.418-1.104,1.724-2.009,2.896-2.009h8.57c1.172,0,2.478,0.904,2.896,2.009
		l0.854,2.276h3.75C58.144,24.092,60.068,26.017,60.068,28.377z M51.498,35.876c0-4.135-3.365-7.499-7.499-7.499
		c-4.134,0-7.499,3.364-7.499,7.499s3.365,7.499,7.499,7.499C48.133,43.375,51.498,40.011,51.498,35.876z M48.82,35.876
		c0,2.661-2.16,4.821-4.821,4.821c-2.662,0-4.821-2.16-4.821-4.821s2.159-4.821,4.821-4.821C46.66,31.055,48.82,33.215,48.82,35.876
		z"/>
</g>
</svg>
